<svg xmlns="http://www.w3.org/2000/svg" width="720" height="420" viewBox="0 0 720 420" role="img" aria-label="RBJ all-pass at 1 kHz: phase">
<rect width="100%" height="100%" fill="#fcfcfb"/>
<text x="70.00" y="26.00" font-family="Helvetica, Arial, sans-serif" font-size="15" fill="#0b0b0b" text-anchor="start" font-weight="bold">RBJ all-pass at 1 kHz: phase</text>
<line x1="70.00" y1="70.00" x2="70.00" y2="366.00" stroke="#e1e0d9" stroke-width="1.00"/>
<text x="70.00" y="382.00" font-family="Helvetica, Arial, sans-serif" font-size="11" fill="#898781" text-anchor="middle">20</text>
<line x1="153.04" y1="70.00" x2="153.04" y2="366.00" stroke="#e1e0d9" stroke-width="1.00"/>
<text x="153.04" y="382.00" font-family="Helvetica, Arial, sans-serif" font-size="11" fill="#898781" text-anchor="middle">50</text>
<line x1="215.85" y1="70.00" x2="215.85" y2="366.00" stroke="#e1e0d9" stroke-width="1.00"/>
<text x="215.85" y="382.00" font-family="Helvetica, Arial, sans-serif" font-size="11" fill="#898781" text-anchor="middle">100</text>
<line x1="278.67" y1="70.00" x2="278.67" y2="366.00" stroke="#e1e0d9" stroke-width="1.00"/>
<text x="278.67" y="382.00" font-family="Helvetica, Arial, sans-serif" font-size="11" fill="#898781" text-anchor="middle">200</text>
<line x1="361.70" y1="70.00" x2="361.70" y2="366.00" stroke="#e1e0d9" stroke-width="1.00"/>
<text x="361.70" y="382.00" font-family="Helvetica, Arial, sans-serif" font-size="11" fill="#898781" text-anchor="middle">500</text>
<line x1="424.52" y1="70.00" x2="424.52" y2="366.00" stroke="#e1e0d9" stroke-width="1.00"/>
<text x="424.52" y="382.00" font-family="Helvetica, Arial, sans-serif" font-size="11" fill="#898781" text-anchor="middle">1k</text>
<line x1="487.33" y1="70.00" x2="487.33" y2="366.00" stroke="#e1e0d9" stroke-width="1.00"/>
<text x="487.33" y="382.00" font-family="Helvetica, Arial, sans-serif" font-size="11" fill="#898781" text-anchor="middle">2k</text>
<line x1="570.37" y1="70.00" x2="570.37" y2="366.00" stroke="#e1e0d9" stroke-width="1.00"/>
<text x="570.37" y="382.00" font-family="Helvetica, Arial, sans-serif" font-size="11" fill="#898781" text-anchor="middle">5k</text>
<line x1="633.19" y1="70.00" x2="633.19" y2="366.00" stroke="#e1e0d9" stroke-width="1.00"/>
<text x="633.19" y="382.00" font-family="Helvetica, Arial, sans-serif" font-size="11" fill="#898781" text-anchor="middle">10k</text>
<line x1="696.00" y1="70.00" x2="696.00" y2="366.00" stroke="#e1e0d9" stroke-width="1.00"/>
<text x="696.00" y="382.00" font-family="Helvetica, Arial, sans-serif" font-size="11" fill="#898781" text-anchor="middle">20k</text>
<line x1="70.00" y1="357.78" x2="696.00" y2="357.78" stroke="#e1e0d9" stroke-width="1.00"/>
<text x="64.00" y="361.78" font-family="Helvetica, Arial, sans-serif" font-size="11" fill="#898781" text-anchor="end">-350</text>
<line x1="70.00" y1="316.67" x2="696.00" y2="316.67" stroke="#e1e0d9" stroke-width="1.00"/>
<text x="64.00" y="320.67" font-family="Helvetica, Arial, sans-serif" font-size="11" fill="#898781" text-anchor="end">-300</text>
<line x1="70.00" y1="275.56" x2="696.00" y2="275.56" stroke="#e1e0d9" stroke-width="1.00"/>
<text x="64.00" y="279.56" font-family="Helvetica, Arial, sans-serif" font-size="11" fill="#898781" text-anchor="end">-250</text>
<line x1="70.00" y1="234.44" x2="696.00" y2="234.44" stroke="#e1e0d9" stroke-width="1.00"/>
<text x="64.00" y="238.44" font-family="Helvetica, Arial, sans-serif" font-size="11" fill="#898781" text-anchor="end">-200</text>
<line x1="70.00" y1="193.33" x2="696.00" y2="193.33" stroke="#e1e0d9" stroke-width="1.00"/>
<text x="64.00" y="197.33" font-family="Helvetica, Arial, sans-serif" font-size="11" fill="#898781" text-anchor="end">-150</text>
<line x1="70.00" y1="152.22" x2="696.00" y2="152.22" stroke="#e1e0d9" stroke-width="1.00"/>
<text x="64.00" y="156.22" font-family="Helvetica, Arial, sans-serif" font-size="11" fill="#898781" text-anchor="end">-100</text>
<line x1="70.00" y1="111.11" x2="696.00" y2="111.11" stroke="#e1e0d9" stroke-width="1.00"/>
<text x="64.00" y="115.11" font-family="Helvetica, Arial, sans-serif" font-size="11" fill="#898781" text-anchor="end">-50</text>
<line x1="70.00" y1="70.00" x2="696.00" y2="70.00" stroke="#e1e0d9" stroke-width="1.00"/>
<text x="64.00" y="74.00" font-family="Helvetica, Arial, sans-serif" font-size="11" fill="#898781" text-anchor="end">0</text>
<line x1="70.00" y1="366.00" x2="696.00" y2="366.00" stroke="#c3c2b7" stroke-width="1.00"/>
<line x1="70.00" y1="70.00" x2="70.00" y2="366.00" stroke="#c3c2b7" stroke-width="1.00"/>
<text x="383.00" y="408.00" font-family="Helvetica, Arial, sans-serif" font-size="12" fill="#52514e" text-anchor="middle">frequency in Hz</text>
<text x="18.00" y="218.00" font-family="Helvetica, Arial, sans-serif" font-size="12" fill="#52514e" text-anchor="middle" transform="rotate(-90 18 218.00)">phase in degrees</text>
<clipPath id="plot"><rect x="70.00" y="70.00" width="626.00" height="296.00"/></clipPath>
<polyline clip-path="url(#plot)" fill="none" stroke="#2a78d6" stroke-width="2" stroke-linejoin="round" stroke-linecap="round" points="70.00,72.65 71.57,72.70 73.14,72.74 74.71,72.79 76.28,72.84 77.84,72.89 79.41,72.94 80.98,72.99 82.55,73.04 84.12,73.10 85.69,73.15 87.26,73.21 88.83,73.26 90.40,73.32 91.96,73.38 93.53,73.44 95.10,73.50 96.67,73.56 98.24,73.62 99.81,73.68 101.38,73.75 102.95,73.81 104.52,73.88 106.09,73.95 107.65,74.02 109.22,74.09 110.79,74.16 112.36,74.23 113.93,74.31 115.50,74.38 117.07,74.46 118.64,74.53 120.21,74.61 121.77,74.69 123.34,74.78 124.91,74.86 126.48,74.95 128.05,75.03 129.62,75.12 131.19,75.21 132.76,75.30 134.33,75.39 135.89,75.49 137.46,75.58 139.03,75.68 140.60,75.78 142.17,75.88 143.74,75.98 145.31,76.09 146.88,76.19 148.45,76.30 150.02,76.41 151.58,76.53 153.15,76.64 154.72,76.76 156.29,76.87 157.86,76.99 159.43,77.12 161.00,77.24 162.57,77.37 164.14,77.50 165.70,77.63 167.27,77.76 168.84,77.90 170.41,78.04 171.98,78.18 173.55,78.32 175.12,78.47 176.69,78.61 178.26,78.76 179.82,78.92 181.39,79.07 182.96,79.23 184.53,79.40 186.10,79.56 187.67,79.73 189.24,79.90 190.81,80.07 192.38,80.25 193.94,80.43 195.51,80.61 197.08,80.80 198.65,80.99 200.22,81.18 201.79,81.37 203.36,81.57 204.93,81.78 206.50,81.98 208.07,82.19 209.63,82.41 211.20,82.63 212.77,82.85 214.34,83.07 215.91,83.30 217.48,83.54 219.05,83.78 220.62,84.02 222.19,84.27 223.75,84.52 225.32,84.77 226.89,85.03 228.46,85.30 230.03,85.57 231.60,85.84 233.17,86.12 234.74,86.40 236.31,86.69 237.87,86.99 239.44,87.29 241.01,87.59 242.58,87.91 244.15,88.22 245.72,88.54 247.29,88.87 248.86,89.21 250.43,89.55 251.99,89.89 253.56,90.25 255.13,90.60 256.70,90.97 258.27,91.34 259.84,91.72 261.41,92.11 262.98,92.50 264.55,92.90 266.12,93.31 267.68,93.72 269.25,94.15 270.82,94.58 272.39,95.02 273.96,95.46 275.53,95.92 277.10,96.38 278.67,96.85 280.24,97.34 281.80,97.83 283.37,98.32 284.94,98.83 286.51,99.35 288.08,99.88 289.65,100.42 291.22,100.97 292.79,101.53 294.36,102.10 295.92,102.68 297.49,103.27 299.06,103.87 300.63,104.49 302.20,105.11 303.77,105.75 305.34,106.40 306.91,107.07 308.48,107.75 310.05,108.44 311.61,109.14 313.18,109.86 314.75,110.59 316.32,111.34 317.89,112.10 319.46,112.87 321.03,113.67 322.60,114.47 324.17,115.30 325.73,116.14 327.30,117.00 328.87,117.87 330.44,118.77 332.01,119.68 333.58,120.61 335.15,121.56 336.72,122.53 338.29,123.51 339.85,124.52 341.42,125.55 342.99,126.60 344.56,127.68 346.13,128.77 347.70,129.89 349.27,131.03 350.84,132.19 352.41,133.38 353.97,134.60 355.54,135.84 357.11,137.10 358.68,138.39 360.25,139.71 361.82,141.05 363.39,142.42 364.96,143.82 366.53,145.25 368.10,146.71 369.66,148.20 371.23,149.71 372.80,151.26 374.37,152.84 375.94,154.44 377.51,156.08 379.08,157.75 380.65,159.45 382.22,161.18 383.78,162.95 385.35,164.74 386.92,166.57 388.49,168.43 390.06,170.32 391.63,172.24 393.20,174.19 394.77,176.17 396.34,178.18 397.90,180.22 399.47,182.28 401.04,184.38 402.61,186.50 404.18,188.64 405.75,190.81 407.32,193.00 408.89,195.21 410.46,197.44 412.03,199.68 413.59,201.95 415.16,204.23 416.73,206.52 418.30,208.82 419.87,211.13 421.44,213.44 423.01,215.76 424.58,218.09 426.15,220.41 427.71,222.73 429.28,225.05 430.85,227.36 432.42,229.66 433.99,231.95 435.56,234.23 437.13,236.50 438.70,238.75 440.27,240.98 441.83,243.19 443.40,245.39 444.97,247.56 446.54,249.70 448.11,251.83 449.68,253.92 451.25,256.00 452.82,258.04 454.39,260.05 455.95,262.04 457.52,263.99 459.09,265.92 460.66,267.81 462.23,269.68 463.80,271.51 465.37,273.31 466.94,275.08 468.51,276.82 470.08,278.53 471.64,280.20 473.21,281.85 474.78,283.46 476.35,285.05 477.92,286.60 479.49,288.12 481.06,289.62 482.63,291.08 484.20,292.51 485.76,293.92 487.33,295.30 488.90,296.65 490.47,297.98 492.04,299.28 493.61,300.55 495.18,301.79 496.75,303.02 498.32,304.21 499.88,305.39 501.45,306.53 503.02,307.66 504.59,308.76 506.16,309.85 507.73,310.91 509.30,311.94 510.87,312.96 512.44,313.96 514.01,314.94 515.57,315.90 517.14,316.84 518.71,317.76 520.28,318.66 521.85,319.55 523.42,320.41 524.99,321.27 526.56,322.10 528.13,322.92 529.69,323.72 531.26,324.51 532.83,325.28 534.40,326.04 535.97,326.78 537.54,327.51 539.11,328.23 540.68,328.93 542.25,329.62 543.81,330.30 545.38,330.96 546.95,331.61 548.52,332.25 550.09,332.88 551.66,333.50 553.23,334.10 554.80,334.70 556.37,335.28 557.93,335.86 559.50,336.42 561.07,336.97 562.64,337.52 564.21,338.05 565.78,338.58 567.35,339.09 568.92,339.60 570.49,340.10 572.06,340.59 573.62,341.07 575.19,341.54 576.76,342.01 578.33,342.46 579.90,342.91 581.47,343.35 583.04,343.79 584.61,344.22 586.18,344.64 587.74,345.05 589.31,345.46 590.88,345.86 592.45,346.25 594.02,346.64 595.59,347.02 597.16,347.39 598.73,347.76 600.30,348.13 601.86,348.49 603.43,348.84 605.00,349.19 606.57,349.53 608.14,349.86 609.71,350.20 611.28,350.52 612.85,350.85 614.42,351.16 615.98,351.48 617.55,351.78 619.12,352.09 620.69,352.39 622.26,352.68 623.83,352.98 625.40,353.26 626.97,353.55 628.54,353.83 630.11,354.10 631.67,354.38 633.24,354.65 634.81,354.91 636.38,355.18 637.95,355.44 639.52,355.69 641.09,355.95 642.66,356.20 644.23,356.44 645.79,356.69 647.36,356.93 648.93,357.17 650.50,357.41 652.07,357.64 653.64,357.88 655.21,358.11 656.78,358.34 658.35,358.56 659.91,358.79 661.48,359.01 663.05,359.23 664.62,359.45 666.19,359.67 667.76,359.89 669.33,360.10 670.90,360.32 672.47,360.53 674.04,360.74 675.60,360.95 677.17,361.16 678.74,361.37 680.31,361.58 681.88,361.79 683.45,362.00 685.02,362.21 686.59,362.41 688.16,362.62 689.72,362.83 691.29,363.04 692.86,363.25 694.43,363.46 696.00,363.67"/>
<polyline clip-path="url(#plot)" fill="none" stroke="#eb6834" stroke-width="2" stroke-linejoin="round" stroke-linecap="round" points="70.00,70.47 71.57,70.48 73.14,70.49 74.71,70.50 76.28,70.50 77.84,70.51 79.41,70.52 80.98,70.53 82.55,70.54 84.12,70.55 85.69,70.56 87.26,70.57 88.83,70.58 90.40,70.59 91.96,70.60 93.53,70.61 95.10,70.62 96.67,70.63 98.24,70.64 99.81,70.65 101.38,70.67 102.95,70.68 104.52,70.69 106.09,70.70 107.65,70.71 109.22,70.73 110.79,70.74 112.36,70.75 113.93,70.76 115.50,70.78 117.07,70.79 118.64,70.81 120.21,70.82 121.77,70.83 123.34,70.85 124.91,70.86 126.48,70.88 128.05,70.89 129.62,70.91 131.19,70.93 132.76,70.94 134.33,70.96 135.89,70.98 137.46,70.99 139.03,71.01 140.60,71.03 142.17,71.05 143.74,71.06 145.31,71.08 146.88,71.10 148.45,71.12 150.02,71.14 151.58,71.16 153.15,71.18 154.72,71.20 156.29,71.22 157.86,71.24 159.43,71.27 161.00,71.29 162.57,71.31 164.14,71.33 165.70,71.36 167.27,71.38 168.84,71.41 170.41,71.43 171.98,71.45 173.55,71.48 175.12,71.51 176.69,71.53 178.26,71.56 179.82,71.59 181.39,71.62 182.96,71.64 184.53,71.67 186.10,71.70 187.67,71.73 189.24,71.76 190.81,71.79 192.38,71.83 193.94,71.86 195.51,71.89 197.08,71.92 198.65,71.96 200.22,71.99 201.79,72.03 203.36,72.06 204.93,72.10 206.50,72.14 208.07,72.18 209.63,72.22 211.20,72.25 212.77,72.29 214.34,72.34 215.91,72.38 217.48,72.42 219.05,72.46 220.62,72.51 222.19,72.55 223.75,72.60 225.32,72.64 226.89,72.69 228.46,72.74 230.03,72.79 231.60,72.84 233.17,72.89 234.74,72.94 236.31,72.99 237.87,73.05 239.44,73.10 241.01,73.16 242.58,73.22 244.15,73.27 245.72,73.33 247.29,73.39 248.86,73.46 250.43,73.52 251.99,73.58 253.56,73.65 255.13,73.71 256.70,73.78 258.27,73.85 259.84,73.92 261.41,74.00 262.98,74.07 264.55,74.14 266.12,74.22 267.68,74.30 269.25,74.38 270.82,74.46 272.39,74.54 273.96,74.63 275.53,74.72 277.10,74.80 278.67,74.90 280.24,74.99 281.80,75.08 283.37,75.18 284.94,75.28 286.51,75.38 288.08,75.48 289.65,75.59 291.22,75.70 292.79,75.81 294.36,75.92 295.92,76.04 297.49,76.15 299.06,76.28 300.63,76.40 302.20,76.53 303.77,76.66 305.34,76.79 306.91,76.93 308.48,77.07 310.05,77.21 311.61,77.36 313.18,77.51 314.75,77.67 316.32,77.83 317.89,77.99 319.46,78.16 321.03,78.34 322.60,78.51 324.17,78.70 325.73,78.89 327.30,79.08 328.87,79.28 330.44,79.49 332.01,79.70 333.58,79.92 335.15,80.15 336.72,80.38 338.29,80.63 339.85,80.88 341.42,81.14 342.99,81.40 344.56,81.68 346.13,81.97 347.70,82.27 349.27,82.58 350.84,82.90 352.41,83.24 353.97,83.58 355.54,83.95 357.11,84.33 358.68,84.72 360.25,85.13 361.82,85.57 363.39,86.02 364.96,86.49 366.53,86.99 368.10,87.51 369.66,88.06 371.23,88.64 372.80,89.25 374.37,89.90 375.94,90.58 377.51,91.30 379.08,92.07 380.65,92.90 382.22,93.77 383.78,94.71 385.35,95.71 386.92,96.79 388.49,97.95 390.06,99.20 391.63,100.56 393.20,102.04 394.77,103.65 396.34,105.42 397.90,107.36 399.47,109.50 401.04,111.87 402.61,114.50 404.18,117.45 405.75,120.77 407.32,124.51 408.89,128.76 410.46,133.59 412.03,139.13 413.59,145.47 415.16,152.76 416.73,161.09 418.30,170.57 419.87,181.20 421.44,192.92 423.01,205.47 424.58,218.48 426.15,231.48 427.71,243.99 429.28,255.63 430.85,266.19 432.42,275.59 433.99,283.85 435.56,291.06 437.13,297.35 438.70,302.83 440.27,307.62 441.83,311.83 443.40,315.54 444.97,318.83 446.54,321.76 448.11,324.38 449.68,326.73 451.25,328.85 452.82,330.78 454.39,332.53 455.95,334.14 457.52,335.61 459.09,336.96 460.66,338.21 462.23,339.36 463.80,340.43 465.37,341.43 466.94,342.37 468.51,343.24 470.08,344.06 471.64,344.82 473.21,345.55 474.78,346.23 476.35,346.87 477.92,347.48 479.49,348.06 481.06,348.61 482.63,349.13 484.20,349.62 485.76,350.10 487.33,350.55 488.90,350.98 490.47,351.39 492.04,351.79 493.61,352.17 495.18,352.53 496.75,352.88 498.32,353.21 499.88,353.53 501.45,353.85 503.02,354.14 504.59,354.43 506.16,354.71 507.73,354.98 509.30,355.24 510.87,355.49 512.44,355.73 514.01,355.97 515.57,356.20 517.14,356.42 518.71,356.63 520.28,356.84 521.85,357.04 523.42,357.24 524.99,357.43 526.56,357.61 528.13,357.79 529.69,357.97 531.26,358.14 532.83,358.30 534.40,358.46 535.97,358.62 537.54,358.78 539.11,358.93 540.68,359.07 542.25,359.21 543.81,359.35 545.38,359.49 546.95,359.62 548.52,359.75 550.09,359.88 551.66,360.00 553.23,360.12 554.80,360.24 556.37,360.35 557.93,360.47 559.50,360.58 561.07,360.68 562.64,360.79 564.21,360.89 565.78,360.99 567.35,361.09 568.92,361.19 570.49,361.29 572.06,361.38 573.62,361.47 575.19,361.56 576.76,361.65 578.33,361.74 579.90,361.82 581.47,361.90 583.04,361.99 584.61,362.07 586.18,362.14 587.74,362.22 589.31,362.30 590.88,362.37 592.45,362.44 594.02,362.52 595.59,362.59 597.16,362.66 598.73,362.72 600.30,362.79 601.86,362.86 603.43,362.92 605.00,362.98 606.57,363.05 608.14,363.11 609.71,363.17 611.28,363.23 612.85,363.29 614.42,363.35 615.98,363.40 617.55,363.46 619.12,363.51 620.69,363.57 622.26,363.62 623.83,363.67 625.40,363.73 626.97,363.78 628.54,363.83 630.11,363.88 631.67,363.93 633.24,363.98 634.81,364.02 636.38,364.07 637.95,364.12 639.52,364.16 641.09,364.21 642.66,364.25 644.23,364.30 645.79,364.34 647.36,364.39 648.93,364.43 650.50,364.47 652.07,364.51 653.64,364.55 655.21,364.60 656.78,364.64 658.35,364.68 659.91,364.72 661.48,364.76 663.05,364.80 664.62,364.84 666.19,364.87 667.76,364.91 669.33,364.95 670.90,364.99 672.47,365.03 674.04,365.07 675.60,365.10 677.17,365.14 678.74,365.18 680.31,365.22 681.88,365.25 683.45,365.29 685.02,365.33 686.59,365.36 688.16,365.40 689.72,365.44 691.29,365.47 692.86,365.51 694.43,365.55 696.00,365.59"/>
<line x1="70.00" y1="44.00" x2="92.00" y2="44.00" stroke="#2a78d6" stroke-width="2.00"/>
<text x="98.00" y="48.00" font-family="Helvetica, Arial, sans-serif" font-size="12" fill="#52514e" text-anchor="start">Q 0.71</text>
<line x1="155.60" y1="44.00" x2="177.60" y2="44.00" stroke="#eb6834" stroke-width="2.00"/>
<text x="183.60" y="48.00" font-family="Helvetica, Arial, sans-serif" font-size="12" fill="#52514e" text-anchor="start">Q 4</text>
</svg>
